<svg width="21" height="20" viewBox="0 0 21 20" fill="none" xmlns="http://www.w3.org/2000/svg">
<path fill-rule="evenodd" clip-rule="evenodd" d="M19.8041 2.06274C19.724 1.99671 19.61 1.98139 19.5133 2.02351L2.05144 9.64706C1.95744 9.68812 1.8969 9.77625 1.89577 9.87364C1.89464 9.97102 1.95318 10.0604 2.04628 10.1033L5.49575 11.5661C5.58637 11.6079 12.6958 8.08753 12.6958 8.08753L8.33325 12.6798C8.24497 12.7727 8.19575 12.896 8.19575 13.0242V16.4303C8.19575 16.8781 8.739 17.1001 9.05261 16.7806L11.3367 14.4532L14.9379 16.1658C15.0083 16.1974 15.0897 16.1987 15.1612 16.1695C15.2328 16.1402 15.2872 16.0833 15.3106 16.0134L19.8834 2.32856C19.9153 2.23299 19.8842 2.12878 19.8041 2.06274Z" fill="#9A92A5"/>
</svg>
