<svg width="15" height="15" viewBox="0 0 15 15" fill="none" xmlns="http://www.w3.org/2000/svg"><path fill-rule="evenodd" clip-rule="evenodd" d="M2.625 6.521l3.41-.527L7.499 2.85l1.464 3.144 3.412.527-2.474 2.564.565 3.515-2.967-1.647L4.532 12.6l.566-3.515-2.473-2.564z" fill="#F2994A"/><path fill-rule="evenodd" clip-rule="evenodd" d="M7.5 11.944L3.328 14.25l.797-4.884L.75 5.906l4.664-.712L7.5.75l2.086 4.444 4.664.713-3.375 3.459.797 4.884L7.5 11.944zM3.09 6.69l2.238 2.297-.512 3.15L7.5 10.66l2.684 1.476-.511-3.149 2.239-2.297-3.088-.472L7.5 3.4 6.176 6.218 3.09 6.69z" fill="#F2994A"/></svg>